<?xml version="1.0" encoding="utf-8"?>
<!-- Generator: Adobe Illustrator 28.1.0, SVG Export Plug-In . SVG Version: 6.00 Build 0)  -->
<svg version="1.1" xmlns="http://www.w3.org/2000/svg" xmlns:xlink="http://www.w3.org/1999/xlink" x="0px" y="0px"
	 viewBox="0 0 781 281" style="enable-background:new 0 0 781 281;" xml:space="preserve">
<style type="text/css">
	.st0{display:none;}
	.st1{display:inline;}
	.st2{fill:#36A0FF;}
	.st3{fill:#FFFFFF;}
	.st4{fill:none;}
</style>
<g id="Layer_2" class="st0">
	<rect x="-559" y="-391" class="st1" width="1920" height="1080"/>
	<rect x="1538" y="160" class="st1" width="1920" height="1080"/>
</g>
<g id="Layer_1">
	<path class="st2" d="M44.3,219.85c1.94-6.42,9.02-9.67,15.2-7.05c10.28,4.36,22.65,7.4,35.48,7.4c26.7,0,42.3-14.1,42.3-34.5
		c0-18.9-10.8-29.7-38.1-40.2c-33-11.7-53.4-28.8-53.4-57.3c0-31.5,26.1-54.9,65.4-54.9c14.25,0,25.8,2.27,34.55,5.36
		c5.79,2.04,8.86,8.36,6.9,14.17v0c-2.01,5.94-8.5,9.12-14.39,6.97c-7.15-2.6-16.64-4.9-27.96-4.9c-27.6,0-38.1,16.5-38.1,30.3
		c0,18.9,12.3,28.2,40.2,39c34.2,13.2,51.6,29.7,51.6,59.4c0,31.2-23.1,58.2-70.8,58.2c-14.96,0-30.98-3.36-42.51-8.17
		c-5.31-2.22-8.08-8.08-6.42-13.59L44.3,219.85z"/>
	<path class="st3" d="M448.87,47.4v0.3c0,5.97-4.83,10.8-10.8,10.8h-61.2c-5.96,0-10.8,4.84-10.8,10.8v45.6
		c0,5.97,4.84,10.8,10.8,10.8h54.9c5.97,0,10.8,4.84,10.8,10.8c0,2.98-1.21,5.68-3.16,7.64c-1.95,1.95-4.65,3.16-7.64,3.16h-54.9
		c-5.96,0-10.8,4.84-10.8,10.8V228c0,5.97-4.84,10.8-10.8,10.8h-4.5c-5.96,0-10.8-4.83-10.8-10.8V47.4c0-5.96,4.84-10.8,10.8-10.8
		h87.3C444.04,36.6,448.87,41.44,448.87,47.4z"/>
	<path class="st3" d="M575.42,55.55c-2.01,2.01-4.78,3.25-7.85,3.25h-39.55c-6.16,0-11.15,4.99-11.15,11.15v157.7
		c0,6.16-4.99,11.15-11.15,11.15h-4.1c-6.16,0-11.15-4.99-11.15-11.15V69.95c0-6.16-4.99-11.15-11.15-11.15h-24.89
		c-0.05,0-0.07-0.05-0.04-0.09c2.77-2.85,4.48-6.72,4.48-11.01v-0.3c0-4.14-1.59-7.89-4.2-10.72c-0.03-0.03-0.01-0.08,0.04-0.08
		h112.47c5.9,0,11.06,4.43,11.46,10.32C578.87,50.28,577.6,53.37,575.42,55.55z"/>
	<path class="st3" d="M724.4,49.27c0,2.13-0.54,4.31-1.74,6.36l-54.96,94.12c-1.13,1.93-1.73,4.13-1.73,6.37v70.04
		c0,6.98-5.66,12.64-12.65,12.64h-1.1c-6.99,0-12.65-5.66-12.65-12.64v-69.91c0-2.13-0.54-4.23-1.56-6.09l-52.06-94.83
		c-4.62-8.42,1.47-18.73,11.09-18.73h0.59c4.75,0,9.1,2.66,11.26,6.9l24.98,48.9c7.8,15.3,13.8,27.6,20.1,41.7h0.6
		c5.7-13.2,12.6-26.4,20.4-41.7l25.55-49c2.18-4.18,6.51-6.8,11.22-6.8C719.13,36.6,724.4,42.66,724.4,49.27z"/>
	<path class="st2" d="M330.09,47.92v8.32c0,0.47-0.03,0.94-0.1,1.4c-0.04,0.28-0.08,0.56-0.14,0.83c-0.49,2.35-1.77,4.46-3.58,6.09
		c-2.36,2.13-5.62,3.44-9.22,3.44C309.84,68,304,62.74,304,56.24v-8.32c0-3.24,1.46-6.18,3.82-8.32c1.75-1.58,4-2.71,6.52-3.19
		c0.06-0.01,0.12-0.02,0.17-0.03c0.82-0.15,1.67-0.23,2.54-0.23C324.25,36.16,330.09,41.43,330.09,47.92z"/>
	<polyline class="st4" points="358.44,-523.23 324.15,-525.32 351.97,-538 394,-494 	"/>
	<g>
		<path class="st4" d="M330.66,43.83c-0.25-1.39-0.64-2.74-1.33-3.89c0.11,1.32,0.14,2.64,0.11,3.95
			C329.83,43.79,330.25,43.78,330.66,43.83z"/>
		<path class="st3" d="M329.85,71.17v154.24c0,7.21-5.84,13.05-13.05,13.05h-0.3c-7.2,0-13.05-5.84-13.05-13.05v-68.7
			c0-7.21-5.84-13.05-13.05-13.05h-71.7c-7.2,0-13.05,5.84-13.05,13.05v68.7c0,7.21-5.84,13.05-13.05,13.05
			c-3.6,0-6.86-1.46-9.22-3.82c-2.37-2.36-3.83-5.62-3.83-9.23V49.31c0-7.21,5.85-13.05,13.05-13.05c3.6,0,6.87,1.46,9.23,3.82
			c2.36,2.36,3.82,5.62,3.82,9.23v58.5c0,7.2,5.85,13.05,13.05,13.05h71.7c7.21,0,13.05-5.85,13.05-13.05V70.3
			c3.32,3.79,8.18,6.19,13.6,6.19c4.82,0,9.35-1.88,12.76-5.28C329.82,71.2,329.84,71.18,329.85,71.17z"/>
		<path class="st4" d="M304,55.76v-1.73c-0.18,0.09-0.37,0.17-0.55,0.22v4.45c0.09-0.06,0.16-0.13,0.26-0.18
			c-0.15-0.51-0.17-1.05-0.05-1.57C303.77,56.55,303.88,56.16,304,55.76z"/>
	</g>
</g>
</svg>
